<?xml version="1.0" standalone="no"?>
<!DOCTYPE svg PUBLIC "-//W3C//DTD SVG 20010904//EN"
 "http://www.w3.org/TR/2001/REC-SVG-20010904/DTD/svg10.dtd">
<svg version="1.0" xmlns="http://www.w3.org/2000/svg"
 width="390.000000pt" height="390.000000pt" viewBox="0 0 390.000000 390.000000"
 preserveAspectRatio="xMidYMid meet">

<g transform="translate(0.000000,390.000000) scale(0.100000,-0.100000)"
fill="#000000" stroke="none">
<path d="M1685 3890 c-177 -20 -285 -59 -432 -157 -170 -113 -282 -297 -359
-588 -29 -106 -25 -427 6 -540 11 -44 23 -89 26 -100 4 -15 -3 -25 -25 -37
-47 -26 -59 -81 -36 -166 28 -103 25 -134 -28 -244 -26 -54 -47 -100 -47 -104
0 -3 -13 -24 -30 -47 -35 -51 -85 -165 -105 -245 -12 -45 -13 -70 -5 -111 13
-72 56 -163 90 -196 37 -35 30 -55 -51 -144 -64 -69 -139 -208 -139 -255 0
-14 -4 -26 -10 -26 -16 0 -40 -57 -40 -97 0 -21 -9 -53 -20 -71 -11 -18 -20
-40 -20 -48 0 -25 30 3 47 44 7 18 18 30 23 27 7 -4 6 -13 0 -25 -5 -10 -10
-35 -10 -55 0 -55 23 -38 33 23 10 64 22 68 22 7 0 -24 6 -50 13 -57 9 -9 12
-2 12 39 0 68 13 74 29 13 14 -53 41 -88 41 -53 0 11 -7 41 -16 68 -13 37 -14
52 -5 66 6 10 11 34 11 54 0 29 -6 39 -35 57 -26 17 -33 28 -29 43 17 59 67
137 136 208 42 44 78 89 80 100 3 19 10 20 80 18 60 -2 88 2 124 18 26 12 48
21 50 21 2 0 4 -30 4 -67 0 -79 35 -217 78 -313 19 -44 46 -81 81 -114 56 -51
58 -64 16 -92 -24 -16 -27 -15 -67 11 -49 32 -165 146 -225 220 -23 28 -63 87
-90 132 l-49 82 -43 -50 c-39 -46 -42 -52 -28 -67 9 -10 21 -39 28 -65 12 -43
11 -51 -9 -92 -12 -25 -22 -50 -22 -55 0 -22 34 -40 76 -40 102 0 162 -58 173
-165 7 -69 28 -104 53 -89 35 23 74 30 109 19 74 -21 88 -38 119 -142 13 -43
14 -43 62 -44 26 -1 54 -2 61 -3 6 -1 29 4 51 11 55 18 82 16 119 -9 32 -23
87 -78 87 -89 0 -11 79 -49 103 -49 14 0 47 17 76 40 64 50 88 60 156 60 46 0
59 -5 95 -35 37 -31 49 -35 96 -35 51 0 54 2 54 24 0 34 38 76 85 92 61 21 90
17 128 -16 37 -32 86 -40 105 -18 5 7 16 32 22 55 13 43 57 98 98 121 25 14
81 15 136 3 34 -8 41 -7 62 14 19 19 24 35 24 73 0 26 7 71 15 99 l15 51 -29
31 c-33 35 -44 76 -31 120 13 48 15 321 1 354 -15 37 -14 47 3 47 28 0 44 -72
50 -233 5 -128 4 -161 -8 -178 -15 -23 -12 -42 15 -96 23 -45 24 -63 5 -108
-8 -19 -12 -37 -8 -39 15 -9 41 22 56 69 l16 50 -4 -67 c-2 -38 -1 -68 3 -68
20 0 31 30 32 84 0 69 13 55 24 -26 7 -55 26 -76 46 -52 17 21 -3 119 -31 149
-13 14 -20 35 -20 63 0 44 -25 72 -65 72 -20 0 -20 3 -13 117 9 131 -2 226
-28 255 -17 18 -16 19 7 35 46 33 79 75 121 160 l42 86 -16 93 c-20 111 -57
199 -117 274 -24 30 -48 60 -53 66 -5 7 4 24 24 46 41 43 110 180 138 273 11
39 26 88 33 110 8 26 12 121 12 275 0 294 -7 327 -118 524 -32 57 -180 210
-233 241 -25 15 -105 47 -177 71 -128 43 -136 44 -259 44 l-128 0 -24 49 c-14
26 -36 61 -49 77 -34 40 -157 101 -252 124 -85 21 -91 21 -200 10z m199 -70
c80 -22 157 -59 164 -78 6 -20 -34 -14 -80 12 -63 35 -171 60 -197 46 -16 -8
-32 -8 -63 1 -65 17 -80 12 -306 -99 -103 -52 -191 -116 -224 -165 -131 -192
-168 -265 -204 -404 -26 -102 -31 -154 -13 -136 18 18 39 3 39 -27 0 -34 -15
-46 -35 -30 -12 10 -15 8 -15 -11 0 -31 17 -181 32 -287 8 -57 8 -86 1 -93
-22 -22 -47 165 -47 351 -1 162 1 183 28 280 32 119 119 296 189 386 76 96
262 221 362 243 161 34 271 38 369 11z m-4 -81 c0 -5 -7 -9 -15 -9 -8 0 -15 7
-15 15 0 9 6 12 15 9 8 -4 15 -10 15 -15z m-35 -100 c10 -31 -3 -89 -20 -89
-11 0 -15 14 -15 55 0 41 4 55 14 55 8 0 18 -9 21 -21z m167 -13 c8 -38 -8
-56 -26 -31 -19 25 -20 52 -3 58 18 6 24 0 29 -27z m-572 7 c-1 -23 -23 -53
-39 -53 -8 0 -10 8 -5 23 13 43 44 65 44 30z m654 -29 c3 -9 6 -25 6 -37 0
-27 -15 -11 -24 26 -7 29 8 38 18 11z m-374 -25 c0 -17 -4 -28 -10 -24 -5 3
-10 17 -10 31 0 13 5 24 10 24 6 0 10 -14 10 -31z m-183 -78 c-24 -43 -41 -45
-31 -3 9 38 13 42 34 42 17 0 17 -2 -3 -39z m-297 19 c0 -21 -29 -80 -39 -80
-16 0 -13 26 4 60 15 29 35 40 35 20z m1174 -3 c-2 -7 -18 -18 -34 -24 -23 -8
-30 -8 -34 3 -6 16 20 33 51 34 14 0 21 -5 17 -13z m-984 -11 c0 -8 -61 -95
-71 -101 -25 -16 9 80 35 97 12 8 36 11 36 4z m238 -43 c-4 -52 -28 -56 -28
-4 0 30 4 41 16 41 11 0 14 -9 12 -37z m174 -20 c6 -29 -4 -64 -16 -60 -13 4
-20 42 -12 63 7 19 24 18 28 -3z m678 9 c0 -10 -45 -32 -65 -32 -21 0 -19 28
3 33 30 8 62 7 62 -1z m-446 -18 c3 -9 3 -20 0 -25 -8 -13 -34 9 -34 27 0 19
26 18 34 -2z m-90 -16 c10 -39 7 -70 -6 -66 -17 6 -33 52 -25 72 9 23 24 20
31 -6z m734 -25 c2 -9 -11 -13 -47 -13 -48 0 -61 7 -44 24 12 11 86 2 91 -11z
m-408 -6 c0 -11 -39 -37 -55 -37 -13 0 -3 30 13 39 24 14 42 13 42 -2z m-1030
-7 c0 -15 -42 -60 -57 -60 -17 0 -16 4 2 40 15 28 55 43 55 20z m1147 -26 c4
-12 -73 -55 -81 -46 -15 14 -3 34 27 47 34 15 49 15 54 -1z m393 -24 c0 -11
-69 -32 -82 -24 -5 3 -4 12 3 20 13 16 79 19 79 4z m-1700 -7 c0 -18 -34 -93
-41 -93 -12 0 -11 43 1 74 8 23 40 38 40 19z m583 -17 c129 -27 322 -138 408
-234 92 -103 149 -274 157 -470 5 -136 2 -148 -60 -251 -56 -93 -47 -123 19
-59 l33 32 -14 -44 c-7 -25 -22 -63 -31 -85 -20 -44 -46 -137 -41 -142 4 -4
50 47 83 92 l22 30 -8 -31 c-5 -17 -14 -41 -21 -53 -6 -12 -18 -40 -25 -62
-14 -39 -14 -39 11 -39 16 0 36 12 55 32 16 18 29 28 29 22 0 -15 -51 -83 -89
-118 -17 -17 -31 -36 -31 -43 0 -18 41 -16 68 3 36 25 27 -4 -18 -61 -22 -27
-40 -54 -40 -59 0 -5 18 -6 40 -3 l39 5 7 -46 c4 -25 4 -100 1 -166 -7 -134
-23 -194 -88 -331 -21 -46 -39 -87 -39 -91 -1 -5 -23 -38 -50 -74 -28 -36 -50
-71 -50 -77 0 -7 -12 -15 -27 -18 -68 -15 -141 -37 -179 -56 l-42 -21 -41 26
c-22 14 -42 26 -45 26 -6 0 -134 78 -201 124 -284 191 -350 324 -375 755 -10
177 -68 610 -95 714 -24 91 -21 322 6 417 39 142 110 230 233 290 153 74 269
93 399 66z m895 2 c-5 -13 -56 -46 -75 -47 -25 -2 1 39 31 48 43 13 48 13 44
-1z m-460 -44 c23 -37 28 -69 13 -78 -12 -8 -61 68 -61 94 0 31 22 23 48 -16z
m719 -39 c-28 -25 -57 -32 -71 -18 -9 9 53 42 79 42 18 0 17 -2 -8 -24z
m-1827 -42 c-1 -39 -23 -82 -34 -64 -8 12 15 101 26 101 4 0 8 -17 8 -37z
m1366 -29 c-24 -17 -59 -19 -54 -1 7 19 51 38 63 26 7 -7 4 -15 -9 -25z m258
17 c6 -10 -16 -31 -61 -56 -39 -22 -51 -15 -29 16 26 38 78 60 90 40z m-393
-142 c14 -20 18 -34 11 -41 -6 -6 -17 2 -31 25 -23 38 -26 47 -12 47 5 0 19
-14 32 -31z m644 21 c-3 -5 -11 -10 -16 -10 -6 0 -7 5 -4 10 3 6 11 10 16 10
6 0 7 -4 4 -10z m-145 -22 c-1 -7 -12 -26 -25 -43 l-25 -30 0 31 c0 32 15 54
37 54 7 0 13 -6 13 -12z m-185 -74 c-45 -37 -59 -44 -76 -33 -11 7 -8 13 16
34 40 34 67 45 80 33 7 -6 0 -18 -20 -34z m370 -14 c3 -5 1 -10 -4 -10 -6 0
-11 5 -11 10 0 6 2 10 4 10 3 0 8 -4 11 -10z m87 -52 c-16 -17 -36 -28 -43
-26 -10 4 -1 17 26 43 47 45 63 29 17 -17z m-609 -51 c6 -19 5 -32 -3 -43 -16
-18 -20 -14 -30 30 -12 54 15 65 33 13z m217 -62 c0 -18 -56 -48 -72 -39 -7 5
-1 15 18 31 33 26 54 30 54 8z m420 -75 c0 -25 -27 -37 -43 -21 -9 10 -8 16 7
27 27 19 36 18 36 -6z m-112 -7 c-28 -58 -45 -83 -55 -83 -7 0 -13 3 -13 7 0
13 53 83 62 83 5 0 8 -3 6 -7z m-514 -41 c8 -13 -11 -35 -23 -28 -16 10 -14
36 3 36 8 0 17 -4 20 -8z m365 -29 c0 -5 -16 -21 -35 -36 -28 -24 -34 -26 -34
-11 0 24 29 54 52 54 10 0 18 -3 17 -7z m-237 -109 c67 -60 56 -214 -22 -334
-9 -14 -32 -49 -51 -77 -19 -29 -38 -53 -42 -53 -9 0 -46 78 -47 98 0 10 4 9
16 -2 44 -45 87 -43 55 2 -45 64 -63 105 -49 113 7 5 16 9 20 9 13 0 25 64 16
88 -5 14 -4 31 3 44 13 24 19 19 28 -23 4 -18 13 -35 20 -37 10 -3 12 7 10 42
-3 32 0 46 8 46 21 0 15 38 -7 45 -34 11 -78 -5 -105 -37 -23 -27 -25 -36 -19
-76 10 -66 -9 -45 -31 33 -17 64 -17 66 1 86 52 58 149 74 196 33z m389 -27
c-29 -30 -39 -12 -10 19 14 15 25 20 27 14 3 -7 -5 -21 -17 -33z m-157 -18
c-15 -16 -35 -29 -43 -29 -10 0 -3 12 19 35 18 19 37 32 42 29 5 -4 -3 -19
-18 -35z m-1804 -43 c0 -9 -8 -12 -26 -8 -19 3 -22 7 -12 13 20 13 38 11 38
-5z m-20 -56 c19 -9 18 -40 -3 -109 l-17 -53 25 4 c30 6 31 2 6 -36 l-19 -29
-23 44 c-16 32 -24 67 -27 127 l-5 84 24 -13 c13 -7 31 -15 39 -19z m1902 -83
c-18 -17 -35 -26 -42 -22 -8 5 0 20 27 47 30 31 39 36 41 22 2 -9 -9 -30 -26
-47z m-112 -149 c57 -72 115 -145 129 -160 39 -44 101 -141 101 -158 0 -9 4
-20 9 -26 20 -22 32 -129 22 -199 -6 -38 -11 -73 -11 -77 0 -5 -7 -8 -16 -8
-14 0 -15 10 -9 78 6 76 6 78 -34 157 -59 117 -119 204 -201 298 -41 45 -78
87 -84 92 -6 6 -19 21 -28 35 -14 22 -14 28 -2 45 8 10 14 27 14 37 0 10 2 18
4 18 2 0 50 -59 106 -132z m-1834 -45 c-10 -10 -19 5 -10 18 6 11 8 11 12 0 2
-7 1 -15 -2 -18z m1772 -43 c40 -48 42 -66 5 -46 -39 21 -85 65 -78 77 12 19
41 7 73 -31z m-283 -78 c-8 -8 -25 17 -25 38 0 9 6 6 16 -8 9 -13 13 -26 9
-30z m-1542 -80 c-7 -46 -29 -74 -42 -53 -16 25 19 108 39 96 5 -3 6 -22 3
-43z m1745 -49 c15 -28 24 -93 14 -93 -17 0 -30 24 -37 68 -7 44 6 58 23 25z
m-1828 -152 c0 -51 -15 -75 -31 -50 -13 20 -11 56 3 79 20 32 28 24 28 -29z
m145 -13 c-8 -61 -12 -71 -27 -62 -6 4 -8 24 -4 51 7 50 12 63 28 63 6 0 7
-18 3 -52z m1631 17 c10 -41 -2 -52 -19 -18 -21 39 -21 43 -2 43 8 0 17 -11
21 -25z m234 -61 c17 -17 20 -24 10 -24 -21 0 -80 37 -80 51 0 16 42 0 70 -27z
m-1794 -47 c-8 -34 -40 -72 -54 -63 -7 4 -3 23 15 57 17 35 28 48 35 41 6 -6
8 -22 4 -35z m112 -30 c3 -23 0 -28 -15 -25 -11 2 -19 14 -21 31 -3 23 0 28
15 25 11 -2 19 -14 21 -31z m-298 -23 c12 -37 3 -63 -18 -50 -13 8 -25 62 -17
76 12 19 23 10 35 -26z m1840 -26 c0 -16 -19 -7 -34 14 -21 30 -7 46 15 17 10
-13 19 -27 19 -31z m-234 -56 c-10 -10 -35 32 -36 59 0 45 14 42 28 -7 7 -25
11 -49 8 -52z m369 13 c0 -17 -41 -17 -55 0 -12 15 -10 16 21 13 19 -2 34 -7
34 -13z m-1868 -31 c8 -21 -13 -42 -28 -27 -13 13 -5 43 11 43 6 0 13 -7 17
-16z m1673 -84 c14 -10 22 -22 18 -25 -8 -8 -68 25 -68 37 0 14 24 8 50 -12z
m-130 -26 c22 -9 40 -20 40 -25 0 -5 -7 -6 -16 -2 -13 5 -15 -3 -12 -48 2 -45
6 -54 23 -57 11 -2 46 -24 78 -49 32 -25 61 -42 64 -39 4 4 9 25 12 49 l6 42
21 -34 c18 -27 20 -40 13 -72 -8 -33 -6 -44 12 -68 14 -20 19 -39 17 -67 -3
-39 -20 -51 -26 -17 -12 74 -19 79 -46 29 -18 -34 -18 -34 7 -77 14 -24 22
-50 20 -57 -3 -9 -15 3 -31 30 -14 23 -27 45 -29 47 -5 7 -53 -42 -53 -55 0
-6 6 -24 14 -39 8 -15 12 -34 9 -41 -9 -24 -34 -15 -44 16 -13 36 -25 37 -63
5 -22 -18 -27 -27 -19 -37 16 -19 26 -75 14 -82 -5 -3 -15 11 -21 31 -17 53
-24 58 -60 43 -23 -10 -29 -17 -24 -29 13 -28 17 -112 5 -124 -16 -16 -37 8
-50 58 -6 25 -16 45 -21 45 -19 0 -100 -44 -100 -54 0 -6 9 -22 20 -36 22 -28
28 -84 8 -78 -7 3 -16 18 -20 34 -5 16 -15 38 -23 48 -14 19 -15 18 -50 -5
-34 -24 -47 -60 -25 -74 15 -9 12 -35 -3 -35 -8 0 -19 11 -25 25 -15 33 -35
32 -87 -6 -24 -17 -48 -30 -53 -28 -14 5 4 27 56 67 23 19 42 40 42 47 0 13
-99 65 -124 65 -19 0 -106 -50 -106 -60 0 -5 20 -23 44 -39 61 -42 74 -80 23
-67 -38 9 -148 86 -141 98 4 6 52 32 108 58 126 58 136 62 131 47 -2 -7 18
-29 44 -49 l49 -36 33 27 33 28 -32 40 c-25 32 -29 42 -18 46 9 4 25 -8 41
-29 14 -19 31 -34 37 -34 16 0 98 42 98 51 0 4 -17 21 -37 38 -35 29 -38 30
-61 15 -23 -15 -26 -15 -34 0 -5 9 -18 16 -30 16 -20 0 -20 1 3 18 l22 19 -49
7 c-81 11 -85 22 -13 39 55 12 68 12 91 0 23 -11 32 -11 48 -1 19 12 22 17 24
48 1 10 10 14 25 12 24 -2 71 32 71 51 0 5 13 21 28 35 36 34 46 61 27 68 -24
9 -19 37 5 29 16 -5 20 -2 20 14 0 15 -6 21 -23 21 -13 0 -32 10 -43 21 l-19
22 42 -6 41 -7 4 50 3 50 -32 0 c-33 0 -52 15 -31 23 26 11 79 6 118 -9z m290
-76 c0 -4 -6 -8 -14 -8 -18 0 -47 40 -40 52 6 10 54 -29 54 -44z m-1550 -54
c0 -21 -4 -33 -10 -29 -17 10 -11 65 7 65 2 0 3 -16 3 -36z m1650 -45 c0 -5
-7 -9 -15 -9 -9 0 -15 9 -15 21 0 18 2 19 15 9 8 -7 15 -16 15 -21z m-560 1
c0 -5 -5 -10 -11 -10 -5 0 -7 5 -4 10 3 6 8 10 11 10 2 0 4 -4 4 -10z m-20
-70 c11 -7 9 -11 -13 -21 -23 -11 -30 -10 -44 3 -32 33 6 45 57 18z m-918 -17
c10 -9 18 -23 18 -31 0 -12 -6 -10 -25 8 -38 35 -31 58 7 23z m-97 -33 c17
-34 19 -50 5 -50 -13 0 -42 58 -35 70 9 15 13 12 30 -20z m210 -30 c21 -23 12
-39 -13 -24 -19 12 -29 44 -14 44 5 0 17 -9 27 -20z m-125 -80 c0 -5 -2 -10
-4 -10 -3 0 -8 5 -11 10 -3 6 -1 10 4 10 6 0 11 -4 11 -10z m276 -26 c8 3 23
-3 33 -13 10 -10 25 -21 32 -24 12 -5 11 -7 -1 -16 -8 -6 -23 -10 -32 -8 -10
1 -28 -13 -42 -31 -33 -45 -113 -114 -97 -84 10 18 9 23 -4 28 -8 3 -15 16
-15 29 0 19 5 22 35 21 29 -1 39 4 52 26 16 26 16 27 -7 46 -28 23 -20 48 11
31 11 -6 27 -8 35 -5z m1369 -8 c18 -13 18 -14 -4 -26 -27 -14 -47 -1 -38 24
8 20 18 20 42 2z m-989 -56 c23 -11 50 -18 60 -15 10 3 4 -2 -14 -10 -27 -13
-36 -13 -55 -2 -12 8 -41 20 -64 27 -23 7 -40 17 -36 22 7 13 57 3 109 -22z
m-189 -66 c49 -19 53 -26 20 -41 -18 -9 -34 -6 -73 10 -61 26 -62 26 -44 37
22 14 49 12 97 -6z m-174 -63 c3 -11 18 -22 40 -27 l36 -9 -32 -21 -33 -21
-52 19 -53 20 37 29 c43 34 50 35 57 10z m-93 -89 c0 -5 12 -14 27 -21 19 -9
23 -15 15 -23 -8 -8 -18 -6 -36 6 -26 16 -36 46 -16 46 6 0 10 -4 10 -8z m230
-73 c11 -6 6 -8 -17 -9 -17 0 -33 -5 -35 -12 -3 -9 -12 -9 -37 2 -31 12 -32
15 -16 26 19 14 77 10 105 -7z"/>
<path d="M1704 2998 c-4 -7 8 -23 29 -41 20 -16 46 -49 56 -73 20 -45 46 -58
58 -28 9 23 -26 91 -64 124 -35 31 -67 38 -79 18z"/>
<path d="M1332 2965 c-25 -29 -53 -109 -50 -144 4 -53 29 -46 50 14 10 28 25
64 34 82 25 49 0 86 -34 48z"/>
<path d="M1840 2961 c0 -10 11 -30 25 -45 13 -14 30 -45 36 -69 21 -71 41 -85
61 -43 8 20 7 34 -6 68 -31 77 -116 143 -116 89z"/>
<path d="M1223 2908 c-21 -29 -32 -66 -34 -108 -3 -71 0 -80 20 -80 23 0 31
19 31 73 1 23 7 53 15 67 20 35 19 60 -4 60 -10 0 -23 -6 -28 -12z"/>
<path d="M1983 2913 c-19 -7 -16 -17 17 -70 19 -30 30 -60 30 -84 0 -67 46
-73 56 -8 10 60 -65 177 -103 162z"/>
<path d="M1467 2894 c-4 -4 -7 -31 -7 -59 0 -93 -21 -269 -40 -342 -25 -93
-84 -214 -160 -331 -33 -51 -60 -101 -60 -112 0 -30 55 -86 112 -114 85 -43
234 -30 333 29 63 36 135 104 135 127 0 26 -10 22 -102 -40 -84 -56 -110 -67
-194 -82 -72 -14 -117 -4 -187 40 -58 37 -60 56 -9 113 89 99 153 219 191 356
44 157 35 461 -12 415z"/>
<path d="M1115 2796 c-17 -26 -32 -107 -27 -143 2 -17 10 -23 27 -23 21 0 25
6 30 48 4 26 11 62 17 80 7 24 7 37 -2 47 -17 21 -27 19 -45 -9z"/>
<path d="M1813 2605 c-44 -31 -55 -145 -13 -145 19 0 23 8 35 68 9 45 46 63
76 36 12 -10 25 -29 30 -42 5 -13 13 -20 19 -17 20 12 10 57 -19 86 -34 33
-91 40 -128 14z"/>
<path d="M1224 2535 c-46 -32 -61 -140 -19 -140 12 0 21 8 23 20 12 75 47 100
93 66 15 -12 33 -21 39 -21 20 0 10 41 -16 65 -31 29 -87 33 -120 10z"/>
<path d="M1832 2347 c-14 -16 27 -83 55 -91 54 -15 80 -16 97 -3 29 21 14 47
-28 47 -25 0 -45 9 -69 30 -40 34 -41 35 -55 17z"/>
<path d="M1905 1781 c-87 -132 -205 -185 -335 -151 -78 20 -97 22 -105 11 -9
-16 12 -39 54 -58 24 -11 67 -17 126 -17 82 -1 94 2 139 28 88 52 151 129 177
218 15 52 -10 39 -56 -31z"/>
<path d="M1665 1210 c-22 -36 85 -98 147 -86 38 7 94 54 81 67 -5 5 -33 4 -65
-3 -51 -11 -58 -10 -92 10 -41 24 -61 27 -71 12z"/>
<path d="M2476 1144 c-9 -24 -7 -54 4 -54 6 0 35 -25 65 -55 29 -30 56 -55 59
-55 3 0 10 19 17 42 11 41 10 43 -23 70 -29 25 -100 68 -112 68 -2 0 -7 -7
-10 -16z"/>
<path d="M2436 1038 l-16 -33 58 -52 57 -52 23 21 c12 12 22 27 22 34 0 13
-106 114 -120 114 -4 0 -15 -15 -24 -32z"/>
<path d="M2367 952 c-10 -10 -17 -22 -17 -26 0 -16 64 -96 77 -96 21 0 63 31
63 45 0 13 -88 95 -101 95 -3 0 -13 -8 -22 -18z"/>
<path d="M2286 879 c-14 -11 -26 -23 -26 -27 0 -4 18 -22 40 -40 35 -29 42
-31 64 -20 14 6 26 16 26 22 0 14 -58 86 -69 86 -5 0 -20 -9 -35 -21z"/>
<path d="M744 2977 c-150 -152 -276 -338 -361 -538 -78 -182 -112 -320 -133
-544 -16 -163 5 -390 52 -570 25 -93 104 -294 142 -359 l26 -45 29 17 c25 14
29 24 33 67 2 28 12 65 20 83 16 31 16 33 -5 47 -12 8 -26 15 -32 15 -15 1
-50 33 -64 57 -19 37 -14 134 10 178 25 47 29 125 9 151 -8 9 -31 27 -52 40
-49 31 -67 86 -50 151 7 25 19 51 27 59 7 8 17 23 20 34 3 11 10 20 14 20 14
0 31 50 31 89 0 27 -8 49 -29 75 -75 94 -45 182 87 256 35 20 42 29 42 55 0
17 -9 48 -20 70 -50 98 -13 172 115 235 87 43 120 78 143 150 11 38 22 259 13
264 -3 2 -34 -24 -67 -57z"/>
<path d="M3152 2941 c5 -27 12 -97 16 -156 l7 -108 48 -14 c88 -26 127 -134
83 -237 -28 -67 -23 -80 42 -111 85 -40 121 -72 148 -129 36 -77 33 -150 -11
-251 -45 -104 -45 -125 5 -178 49 -54 61 -110 34 -156 -10 -17 -21 -31 -25
-31 -13 0 -79 -72 -79 -86 0 -8 11 -37 25 -66 46 -94 34 -141 -49 -192 -26
-16 -28 -22 -22 -57 11 -67 -21 -107 -106 -133 -9 -3 -27 -24 -39 -48 -20 -40
-21 -48 -10 -101 11 -52 10 -62 -6 -90 -10 -18 -33 -39 -51 -47 -24 -11 -32
-22 -32 -42 0 -48 -17 -78 -45 -78 -16 0 -25 6 -25 15 0 8 -7 15 -15 15 -27 0
-65 -31 -65 -53 0 -64 -90 -147 -160 -147 -17 0 -58 -8 -91 -17 -54 -15 -63
-21 -76 -52 -33 -76 -39 -85 -68 -103 -60 -36 -165 -14 -195 41 -23 43 -87 18
-99 -39 -9 -44 -48 -72 -110 -78 -65 -6 -89 1 -136 38 -51 40 -90 40 -144 -3
-96 -73 -104 -77 -145 -77 -76 0 -155 50 -214 135 -11 17 -32 37 -46 44 -23
13 -29 12 -65 -12 -33 -22 -52 -27 -104 -27 -42 0 -70 5 -86 16 -26 19 -71
107 -71 141 0 32 -40 56 -73 44 -14 -5 -28 -15 -32 -20 -12 -20 -63 -12 -95
15 -42 36 -60 74 -60 127 0 64 -28 97 -83 97 -23 1 -60 7 -82 15 -22 8 -41 15
-41 15 -1 0 3 -20 8 -45 8 -38 7 -50 -7 -72 -17 -25 -16 -26 27 -70 180 -186
412 -331 668 -421 282 -98 572 -123 850 -71 547 100 1016 455 1250 944 187
391 220 832 93 1245 -59 192 -161 388 -286 550 -54 70 -147 170 -158 170 -3 0
-2 -22 3 -49z"/>
<path d="M802 2609 c-18 -20 -58 -49 -90 -63 -90 -41 -106 -53 -116 -80 -7
-19 -5 -35 7 -61 10 -21 17 -60 17 -92 l0 -57 -70 -66 c-77 -71 -84 -93 -45
-130 30 -28 45 -77 45 -145 -1 -56 -10 -77 -59 -130 -73 -80 -74 -124 -2 -170
51 -33 68 -61 77 -128 5 -36 1 -56 -21 -103 -26 -56 -36 -128 -18 -144 4 -4
28 -18 52 -31 l43 -24 25 30 c13 17 37 50 53 75 l29 45 -28 30 c-70 76 -101
156 -101 265 0 74 8 105 51 196 16 33 29 69 29 80 1 66 58 274 104 377 14 32
26 69 26 84 0 37 20 92 45 128 20 27 21 34 9 65 -7 19 -13 45 -13 57 -1 34
-13 33 -49 -8z"/>
<path d="M3166 2587 c-3 -12 -6 -39 -6 -59 0 -46 -19 -140 -31 -153 -17 -18
-9 -74 25 -162 55 -142 79 -275 80 -438 1 -208 -35 -362 -130 -564 -35 -75
-47 -92 -61 -87 -23 9 -33 -11 -33 -71 0 -38 4 -53 13 -53 26 0 59 -47 63 -92
8 -71 14 -88 29 -88 22 0 27 17 15 59 -25 95 43 230 125 245 34 7 34 7 29 49
-6 52 19 98 68 123 18 9 35 18 36 19 2 2 -11 34 -28 71 -27 55 -31 75 -27 113
4 40 12 53 61 98 31 29 56 57 56 62 0 6 -13 25 -29 43 -65 76 -71 120 -30 235
39 109 45 157 25 205 -17 40 -52 68 -110 89 -48 17 -105 75 -108 109 -3 47 0
68 21 113 12 25 21 56 21 69 0 27 -23 64 -49 78 -15 8 -20 5 -25 -13z"/>
<path d="M664 1005 c-9 -21 3 -45 21 -45 16 0 19 17 9 44 -8 20 -23 21 -30 1z"/>
</g>
</svg>
